<svg width="32" height="32" viewBox="0 0 32 32" fill="none" xmlns="http://www.w3.org/2000/svg">
<path d="M11.5176 21.8189L9.41792 19.0494M8.74731 25.4731L5.34998 24.4152M23.2532 25.4731L26.6505 24.4152M20.4829 21.8189L22.5826 19.0494M16.0002 20.4233V17M28 28H21.1864M21.1864 28C21.1913 27.9111 21.1938 27.8215 21.1938 27.7314C21.1938 24.9827 18.8686 22.7543 16.0002 22.7543C13.1319 22.7543 10.8067 24.9827 10.8067 27.7314C10.8067 27.8215 10.8092 27.9111 10.8141 28M21.1864 28H10.8141M10.8141 28L4 28M16 4V9.93029M16 9.93029L19.1384 6.79193M16 9.93029L12.8616 6.79193" stroke="black" stroke-linecap="round"/>
</svg>
