<svg width="32" height="32" viewBox="0 0 32 32" fill="none" xmlns="http://www.w3.org/2000/svg">
<path d="M4 16C4 22.0751 8.90087 27 14.9464 27C16.2109 27 17.4253 26.7845 18.5553 26.3882C14.2829 24.8895 11.2178 20.8044 11.2178 16C11.2178 11.1956 14.2829 7.11052 18.5553 5.61183C17.4253 5.21546 16.2109 5 14.9464 5C8.90087 5 4 9.92487 4 16Z" stroke="black" stroke-linejoin="round"/>
<path d="M20.7752 16.3078L21.6333 18.9618H24.4104L22.1637 20.6021L23.0218 23.2562L20.7752 21.6159L18.5285 23.2562L19.3866 20.6021L17.14 18.9618H19.917L20.7752 16.3078Z" stroke="black" stroke-linejoin="round"/>
<path d="M25.9223 12.4083L26.4128 13.9253H28L26.7159 14.8628L27.2064 16.3797L25.9223 15.4422L24.6382 16.3797L25.1287 14.8628L23.8446 13.9253H25.4318L25.9223 12.4083Z" stroke="black" stroke-linejoin="round"/>
<path d="M18.5554 10.0386L19.1537 11.8888H21.0896L19.5234 13.0323L20.1216 14.8825L18.5554 13.739L16.9892 14.8825L17.5875 13.0323L16.0213 11.8888H17.9572L18.5554 10.0386Z" stroke="black" stroke-linejoin="round"/>
</svg>
