<svg width="25" height="24" viewBox="0 0 25 24" fill="none" xmlns="http://www.w3.org/2000/svg">
<path d="M12.5285 16.1645C12.2778 15.946 12.0726 15.4951 12.0726 15.1624V3.6047C12.0726 3.27215 11.8006 3.00014 11.4681 3.00014H10.6926C10.3601 3.00014 10.0881 3.27215 10.0881 3.6047L10.0879 15.1621C10.0879 15.4949 9.87457 15.9358 9.61395 16.1423C9.61395 16.1423 8.49994 17.0245 8.49994 17.8586C8.49994 19.1463 9.63312 20.1903 11.0309 20.1903C12.4285 20.1903 13.5615 19.1462 13.5615 17.8586C13.5615 17.0646 12.5285 16.1643 12.5285 16.1643L12.5285 16.1645Z" fill="#F8BE28"/>
<path d="M11.8215 6.35842C11.8215 6.69097 11.5495 6.96298 11.217 6.96298H10.9522C10.6196 6.96298 10.3476 6.69098 10.3476 6.35842L10.3475 3.86722C10.3475 3.53468 10.6195 3.26266 10.952 3.26266H11.2168C11.5494 3.26266 11.8214 3.53467 11.8214 3.86722L11.8215 6.35842Z" fill="#F8BE28"/>
<path d="M15.092 13.6013C15.092 14.1723 14.6296 14.6349 14.0582 14.6349C13.4869 14.6349 13.0246 14.1725 13.0246 13.6013L14.0443 11.7406L15.092 13.6013Z" fill="#F8BE28"/>
<path d="M16.2046 15.2926C16.2013 15.6241 15.9305 15.8899 15.5987 15.8867C15.2678 15.8837 15.0017 15.6128 15.005 15.2812L15.6071 14.2071L16.2046 15.2926Z" fill="#F8BE28"/>
<path d="M15.9869 12.641C15.9852 12.8385 15.8235 12.9971 15.6261 12.9951C15.4288 12.9932 15.2698 12.8317 15.272 12.6343L15.6312 11.9938L15.9869 12.641Z" fill="#F8BE28"/>
<path d="M12.5069 18.3375C12.4872 18.3372 12.5044 18.3371 12.545 18.3371C12.585 18.3371 12.4978 18.5814 12.3508 18.8797L12.3028 18.9767C12.156 19.275 11.8173 19.5193 11.5504 19.5193H11.0646H10.5793C10.3124 19.5193 9.97367 19.275 9.82662 18.9767L9.77867 18.8797C9.63161 18.5814 9.54483 18.3371 9.58554 18.3371C9.62653 18.3371 9.932 18.3371 10.2646 18.3374L11.9384 18.3376C12.2707 18.3376 12.5268 18.3375 12.5069 18.3375H12.5069Z" fill="#F8BE28"/>
<path d="M10.8448 18.0755C10.4595 18.0533 10.2391 17.929 10.042 17.5552C9.84485 17.181 9.86856 17.0372 10.0674 16.5997L10.0796 16.6011C10.5438 16.6842 10.6747 16.7483 10.8695 17.1197C11.0674 17.4932 11.0447 17.7457 10.8446 18.0753" fill="#F8BE28"/>
<path d="M11.2963 17.01C11.1246 17.0002 11.0264 16.9448 10.9387 16.7783C10.851 16.6119 10.8614 16.5477 10.9502 16.3529L10.9553 16.3533C11.1621 16.3904 11.2205 16.4192 11.3069 16.5844C11.3947 16.7506 11.3847 16.8632 11.2956 17.01" fill="#F8BE28"/>
<path d="M11.5178 18.0755C11.3425 17.8603 11.3015 17.6826 11.4045 17.3962C11.508 17.1098 11.5958 17.0529 11.9248 16.946L11.9295 16.9535C12.1111 17.2403 12.1399 17.341 12.0381 17.6246C11.9352 17.911 11.7898 18.021 11.5178 18.0747" fill="#F8BE28"/>
</svg>
