<svg width="25" height="24" viewBox="0 0 25 24" fill="none" xmlns="http://www.w3.org/2000/svg">
<path d="M8.40778 9.00997C9.42419 8.59868 9.96792 7.46914 9.55502 6.44872C9.14332 5.43232 6.37944 3.99983 6.37944 3.99983C6.37944 3.99983 5.38741 6.95297 5.79884 7.96909C6.21188 8.98964 7.38843 9.42264 8.40778 9.00984V9.00997Z" fill="#F8BE28"/>
<path d="M12.6647 15.0288C12.6647 15.0288 11.6444 17.9035 12.0557 18.9196C12.4685 19.9389 13.6422 20.3742 14.6617 19.9614C15.681 19.5488 16.2213 18.4196 15.8087 17.4003C15.3972 16.3839 12.6647 15.0287 12.6647 15.0287V15.0288Z" fill="#F8BE28"/>
<path d="M6.28 13.8796C6.28 13.8796 5.16064 16.976 5.60379 18.0706C6.04802 19.168 7.33747 19.6474 8.43502 19.2028C9.52962 18.7597 10.0427 17.5511 9.59833 16.4534C9.15488 15.359 6.28 13.8796 6.28 13.8796V13.8796Z" fill="#F8BE28"/>
<path d="M12.6407 12.9415C13.2656 12.6885 13.5139 11.9518 13.2921 11.404C13.0379 10.776 11.4367 9.96761 11.4367 9.96761C11.4367 9.96761 10.8481 11.6626 11.1023 12.2909C11.3241 12.8384 12.0139 13.1953 12.6407 12.9415H12.6407Z" fill="#F8BE28"/>
<path d="M18.7748 12.6813C18.5206 12.0533 16.9194 11.2449 16.9194 11.2449C16.9194 11.2449 16.3307 12.9399 16.5849 13.5681C16.8067 14.1158 17.4967 14.4727 18.1233 14.219C18.7484 13.9658 18.9968 13.229 18.7748 12.6812L18.7748 12.6813Z" fill="#F8BE28"/>
<path d="M17.5525 6.63636C17.141 5.6201 14.377 4.18761 14.377 4.18761C14.377 4.18761 13.385 7.14074 13.7964 8.15686C14.2096 9.17741 15.3861 9.61012 16.4054 9.1975C17.4215 8.78634 17.9655 7.65704 17.5525 6.63626V6.63636Z" fill="#F8BE28"/>
<path d="M20.3018 18.7413C20.0476 18.1133 18.4464 17.3049 18.4464 17.3049C18.4464 17.3049 17.8578 18.9999 18.112 19.6282C18.3338 20.1758 19.0236 20.5327 19.6504 20.2788C20.2752 20.0258 20.5236 19.2891 20.3018 18.7413H20.3018Z" fill="#F8BE28"/>
</svg>
