<svg width="17" height="27" viewBox="0 0 17 27" fill="none" xmlns="http://www.w3.org/2000/svg">
<path d="M14.5403 4.55423H11V0.975907H11.1666C11.4427 0.975907 11.6666 0.757343 11.6666 0.487954C11.6666 0.218564 11.4427 0 11.1666 0H5.8333C5.55726 0 5.3333 0.218564 5.3333 0.487954C5.3333 0.757343 5.55726 0.975907 5.8333 0.975907H5.99997V4.55423H2.45963C1.10287 4.55423 0 5.63053 0 6.95461V23.2971C0 24.6212 1.10287 25.6975 2.45963 25.6975H2.66667V26.512C2.66667 26.7814 2.89063 27 3.16667 27C3.44271 27 3.66667 26.7814 3.66667 26.512V25.6988H13.3333V26.512C13.3333 26.7814 13.5573 27 13.8333 27C14.1094 27 14.3333 26.7814 14.3333 26.512V25.6988H14.5404C15.8971 25.6988 17 24.6225 17 23.2984V6.95457C17 5.6305 15.8971 4.55423 14.5403 4.55423ZM6.99997 0.975907H9.99997V4.55423H6.99997V0.975907ZM16 23.2985C16 24.0863 15.3463 24.7229 14.5403 24.7229H2.45967C1.65237 24.7229 1.00003 24.0851 1.00003 23.2985V13.4607C1.00003 12.6728 1.65367 12.0362 2.45967 12.0362H14.539C15.3463 12.0362 15.9986 12.6741 15.9986 13.4607L16 23.2985ZM16 11.5316C15.5898 11.2356 15.0872 11.0602 14.5403 11.0602H2.45967C1.9128 11.0602 1.4102 11.2356 1.00003 11.5316V6.95464C1.00003 6.16679 1.65367 5.53017 2.45967 5.53017H14.5403C15.3476 5.53017 16 6.16806 16 6.95464V11.5316ZM6.3333 14.8013V21.9579C6.3333 22.2273 6.10934 22.4459 5.8333 22.4459C5.55726 22.4459 5.3333 22.2273 5.3333 21.9579V14.8013C5.3333 14.5319 5.55726 14.3133 5.8333 14.3133C6.10934 14.3133 6.3333 14.5319 6.3333 14.8013ZM11.6666 14.8013V21.9579C11.6666 22.2273 11.4427 22.4459 11.1666 22.4459C10.8906 22.4459 10.6666 22.2273 10.6666 21.9579V14.8013C10.6666 14.5319 10.8906 14.3133 11.1666 14.3133C11.4427 14.3133 11.6666 14.5319 11.6666 14.8013ZM10.3333 8.29521C10.3333 8.5646 10.1093 8.78316 9.83331 8.78316H7.16664C6.8906 8.78316 6.66664 8.5646 6.66664 8.29521C6.66664 8.02582 6.8906 7.80726 7.16664 7.80726H9.83331C10.1093 7.80726 10.3333 8.02582 10.3333 8.29521Z" fill="black"/>
</svg>
